<?xml version="1.0" encoding="UTF-8" standalone="no"?>
<svg
   width="512"
   height="512"
   version="1.1"
   id="svg56"
   sodipodi:docname="logo.svg"
   inkscape:version="1.2.1 (9c6d41e410, 2022-07-14)"
   xmlns:inkscape="http://www.inkscape.org/namespaces/inkscape"
   xmlns:sodipodi="http://sodipodi.sourceforge.net/DTD/sodipodi-0.dtd"
   xmlns="http://www.w3.org/2000/svg"
   xmlns:svg="http://www.w3.org/2000/svg">
  <sodipodi:namedview
     id="namedview58"
     pagecolor="#ffffff"
     bordercolor="#000000"
     borderopacity="0.25"
     inkscape:showpageshadow="2"
     inkscape:pageopacity="0.0"
     inkscape:pagecheckerboard="0"
     inkscape:deskcolor="#d1d1d1"
     showgrid="false"
     inkscape:lockguides="true"
     inkscape:zoom="2.6074563"
     inkscape:cx="217.26156"
     inkscape:cy="238.54667"
     inkscape:window-width="2520"
     inkscape:window-height="1646"
     inkscape:window-x="-11"
     inkscape:window-y="-11"
     inkscape:window-maximized="1"
     inkscape:current-layer="g6003" />
  <defs
     id="defs46">
    <linearGradient
       id="BG1"
       x1="210.29622"
       x2="-57.307476"
       y1="142.981"
       y2="512.7428"
       gradientTransform="matrix(1.0570165,0,0,0.94605904,-8.8208587,23.394447)"
       gradientUnits="userSpaceOnUse">
      <stop
         offset="0"
         stop-color="#103996"
         id="stop31"
         style="stop-color:#178884;stop-opacity:1;" />
      <stop
         offset="0.53479809"
         stop-color="#2065D1"
         id="stop33"
         style="stop-color:#21d6ce;stop-opacity:1;" />
      <stop
         offset="0.98165137"
         stop-color="#2065D1"
         id="stop6863"
         style="stop-color:#fbdf47;stop-opacity:1;" />
    </linearGradient>
    <linearGradient
       id="BG2"
       x1="309.31821"
       x2="188.08594"
       y1="128.74467"
       y2="509.47482"
       gradientTransform="matrix(1.198958,0,0,0.83405759,-8.8208591,23.394447)"
       gradientUnits="userSpaceOnUse">
      <stop
         offset="0.40366971"
         stop-color="#76B0F1"
         id="stop36"
         style="stop-color:#20d4cc;stop-opacity:1;" />
      <stop
         offset="1"
         stop-color="#2065D1"
         id="stop38"
         style="stop-color:#fbdf47;stop-opacity:1;" />
    </linearGradient>
    <linearGradient
       id="BG3"
       x1="406.91"
       x2="496.2691"
       y1="386.19626"
       y2="278.04489"
       gradientUnits="userSpaceOnUse"
       gradientTransform="translate(-8.8208575,23.394448)">
      <stop
         offset="0"
         stop-color="#76B0F1"
         id="stop41"
         style="stop-color:#fbdf47;stop-opacity:1;" />
      <stop
         offset="0.58715594"
         stop-color="#2065D1"
         id="stop43"
         style="stop-color:#20d4cc;stop-opacity:1;" />
    </linearGradient>
  </defs>
  <g
     id="g54">
    <title
       id="title48">Layer 1</title>
    <g
       fill="#2065D1"
       fill-rule="evenodd"
       id="svg_1">
      <g
         id="g6003"
         transform="matrix(1,0,0,-1,6.903281,536.53436)">
        <path
           fill="url(#BG1)"
           d="m 174.34714,308.96746 -2.918,5.298 -2.973,5.363 -2.846,5.095 -2.274,4.043 -2.186,3.857 -2.506,4.38299 -1.6,2.774 -2.294,3.939 -1.099,1.869 -1.416,2.388 -1.025,1.713 -1.317,2.18 -0.95,1.558 -1.514,2.447 -0.866,1.38 -0.833,1.312 -0.802,1.246 -0.77,1.18 -0.739,1.111 -0.935,1.38 -0.664,0.956 -0.425,0.6 -0.41,0.572 -0.59,0.8 -0.376,0.497 -0.537,0.69 -0.171,0.214 c -10.76,13.37 -22.496,23.493 -36.93,29.334 -30.345998,14.262 -68.069998,14.929 -97.2019985,-2.704 l 72.3470005,-124.68199 2.8,-1.72 c 49.256998,-29.326 73.079998,1.117 94.019998,40.927 z"
           id="svg_2"
           style="fill:url(#BG1)" />
        <path
           fill="url(#BG2)"
           d="m 435.48914,253.12045 c -46.27,-80.956 -94.1,-157.228004 -149.043,-45.344 -7.516,14.384 -12.995,42.337 -25.267,42.337 v -0.142 c -12.272,0 -17.75,-27.953 -25.265,-42.337 -54.945,-111.884004 -102.775,-35.612 -149.044999,45.344 -3.483,6.106 -6.828,11.932 -9.69,16.996 106.037999,-67.127 97.109999,135.667 183.999999,137.278 v 0.142 c 86.891,-1.611 77.962,-204.405 184,-137.28 -2.86,-5.062 -6.206,-10.888 -9.69,-16.994"
           id="svg_3"
           style="fill:url(#BG2);fill-opacity:1" />
        <path
           fill="url(#BG3)"
           d="m 441.17914,407.39445 c 26.509,0 48,-21.491 48,-48 0,-26.509 -21.491,-48 -48,-48 -26.509,0 -48,21.491 -48,48 0,26.509 21.491,48 48,48"
           id="svg_4"
           style="fill:url(#BG3);fill-opacity:1" />
      </g>
    </g>
  </g>
</svg>
